<?xml version="1.0" encoding="utf-8" standalone="no"?>
<!DOCTYPE svg PUBLIC "-//W3C//DTD SVG 1.1//EN"
  "http://www.w3.org/Graphics/SVG/1.1/DTD/svg11.dtd">
<!-- Created with matplotlib (https://matplotlib.org/) -->
<svg height="720pt" version="1.1" viewBox="0 0 864 720" width="864pt" xmlns="http://www.w3.org/2000/svg" xmlns:xlink="http://www.w3.org/1999/xlink">
 <metadata>
  <rdf:RDF xmlns:cc="http://creativecommons.org/ns#" xmlns:dc="http://purl.org/dc/elements/1.1/" xmlns:rdf="http://www.w3.org/1999/02/22-rdf-syntax-ns#">
   <cc:Work>
    <dc:type rdf:resource="http://purl.org/dc/dcmitype/StillImage"/>
    <dc:date>2020-11-01T21:16:49.400690</dc:date>
    <dc:format>image/svg+xml</dc:format>
    <dc:creator>
     <cc:Agent>
      <dc:title>Matplotlib v3.3.2, https://matplotlib.org/</dc:title>
     </cc:Agent>
    </dc:creator>
   </cc:Work>
  </rdf:RDF>
 </metadata>
 <defs>
  <style type="text/css">*{stroke-linecap:butt;stroke-linejoin:round;}</style>
 </defs>
 <g id="figure_1">
  <g id="patch_1">
   <path d="M 0 720 
L 864 720 
L 864 0 
L 0 0 
z
" style="fill:none;"/>
  </g>
  <g id="axes_1">
   <g id="patch_2">
    <path d="M 108 630 
L 777.6 630 
L 777.6 86.4 
L 108 86.4 
z
" style="fill:#ffffff;"/>
   </g>
   <g id="matplotlib.axis_1">
    <g id="xtick_1">
     <g id="line2d_1">
      <path clip-path="url(#pe1cee09e18)" d="M 108 630 
L 108 86.4 
" style="fill:none;stroke:#b0b0b0;stroke-linecap:square;stroke-width:0.8;"/>
     </g>
     <g id="line2d_2">
      <defs>
       <path d="M 0 0 
L 0 3.5 
" id="mcc255a53e3" style="stroke:#000000;stroke-width:0.8;"/>
      </defs>
      <g>
       <use style="stroke:#000000;stroke-width:0.8;" x="108" xlink:href="#mcc255a53e3" y="630"/>
      </g>
     </g>
     <g id="text_1">
      <!-- 0 -->
      <g transform="translate(104.81875 644.598438)scale(0.1 -0.1)">
       <defs>
        <path d="M 31.78125 66.40625 
Q 24.171875 66.40625 20.328125 58.90625 
Q 16.5 51.421875 16.5 36.375 
Q 16.5 21.390625 20.328125 13.890625 
Q 24.171875 6.390625 31.78125 6.390625 
Q 39.453125 6.390625 43.28125 13.890625 
Q 47.125 21.390625 47.125 36.375 
Q 47.125 51.421875 43.28125 58.90625 
Q 39.453125 66.40625 31.78125 66.40625 
z
M 31.78125 74.21875 
Q 44.046875 74.21875 50.515625 64.515625 
Q 56.984375 54.828125 56.984375 36.375 
Q 56.984375 17.96875 50.515625 8.265625 
Q 44.046875 -1.421875 31.78125 -1.421875 
Q 19.53125 -1.421875 13.0625 8.265625 
Q 6.59375 17.96875 6.59375 36.375 
Q 6.59375 54.828125 13.0625 64.515625 
Q 19.53125 74.21875 31.78125 74.21875 
z
" id="DejaVuSans-48"/>
       </defs>
       <use xlink:href="#DejaVuSans-48"/>
      </g>
     </g>
    </g>
    <g id="xtick_2">
     <g id="line2d_3">
      <path clip-path="url(#pe1cee09e18)" d="M 191.7 630 
L 191.7 86.4 
" style="fill:none;stroke:#b0b0b0;stroke-linecap:square;stroke-width:0.8;"/>
     </g>
     <g id="line2d_4">
      <g>
       <use style="stroke:#000000;stroke-width:0.8;" x="191.7" xlink:href="#mcc255a53e3" y="630"/>
      </g>
     </g>
     <g id="text_2">
      <!-- 90 -->
      <g transform="translate(185.3375 644.598438)scale(0.1 -0.1)">
       <defs>
        <path d="M 10.984375 1.515625 
L 10.984375 10.5 
Q 14.703125 8.734375 18.5 7.8125 
Q 22.3125 6.890625 25.984375 6.890625 
Q 35.75 6.890625 40.890625 13.453125 
Q 46.046875 20.015625 46.78125 33.40625 
Q 43.953125 29.203125 39.59375 26.953125 
Q 35.25 24.703125 29.984375 24.703125 
Q 19.046875 24.703125 12.671875 31.3125 
Q 6.296875 37.9375 6.296875 49.421875 
Q 6.296875 60.640625 12.9375 67.421875 
Q 19.578125 74.21875 30.609375 74.21875 
Q 43.265625 74.21875 49.921875 64.515625 
Q 56.59375 54.828125 56.59375 36.375 
Q 56.59375 19.140625 48.40625 8.859375 
Q 40.234375 -1.421875 26.421875 -1.421875 
Q 22.703125 -1.421875 18.890625 -0.6875 
Q 15.09375 0.046875 10.984375 1.515625 
z
M 30.609375 32.421875 
Q 37.25 32.421875 41.125 36.953125 
Q 45.015625 41.5 45.015625 49.421875 
Q 45.015625 57.28125 41.125 61.84375 
Q 37.25 66.40625 30.609375 66.40625 
Q 23.96875 66.40625 20.09375 61.84375 
Q 16.21875 57.28125 16.21875 49.421875 
Q 16.21875 41.5 20.09375 36.953125 
Q 23.96875 32.421875 30.609375 32.421875 
z
" id="DejaVuSans-57"/>
       </defs>
       <use xlink:href="#DejaVuSans-57"/>
       <use x="63.623047" xlink:href="#DejaVuSans-48"/>
      </g>
     </g>
    </g>
    <g id="xtick_3">
     <g id="line2d_5">
      <path clip-path="url(#pe1cee09e18)" d="M 275.4 630 
L 275.4 86.4 
" style="fill:none;stroke:#b0b0b0;stroke-linecap:square;stroke-width:0.8;"/>
     </g>
     <g id="line2d_6">
      <g>
       <use style="stroke:#000000;stroke-width:0.8;" x="275.4" xlink:href="#mcc255a53e3" y="630"/>
      </g>
     </g>
     <g id="text_3">
      <!-- 180 -->
      <g transform="translate(265.85625 644.598438)scale(0.1 -0.1)">
       <defs>
        <path d="M 12.40625 8.296875 
L 28.515625 8.296875 
L 28.515625 63.921875 
L 10.984375 60.40625 
L 10.984375 69.390625 
L 28.421875 72.90625 
L 38.28125 72.90625 
L 38.28125 8.296875 
L 54.390625 8.296875 
L 54.390625 0 
L 12.40625 0 
z
" id="DejaVuSans-49"/>
        <path d="M 31.78125 34.625 
Q 24.75 34.625 20.71875 30.859375 
Q 16.703125 27.09375 16.703125 20.515625 
Q 16.703125 13.921875 20.71875 10.15625 
Q 24.75 6.390625 31.78125 6.390625 
Q 38.8125 6.390625 42.859375 10.171875 
Q 46.921875 13.96875 46.921875 20.515625 
Q 46.921875 27.09375 42.890625 30.859375 
Q 38.875 34.625 31.78125 34.625 
z
M 21.921875 38.8125 
Q 15.578125 40.375 12.03125 44.71875 
Q 8.5 49.078125 8.5 55.328125 
Q 8.5 64.0625 14.71875 69.140625 
Q 20.953125 74.21875 31.78125 74.21875 
Q 42.671875 74.21875 48.875 69.140625 
Q 55.078125 64.0625 55.078125 55.328125 
Q 55.078125 49.078125 51.53125 44.71875 
Q 48 40.375 41.703125 38.8125 
Q 48.828125 37.15625 52.796875 32.3125 
Q 56.78125 27.484375 56.78125 20.515625 
Q 56.78125 9.90625 50.3125 4.234375 
Q 43.84375 -1.421875 31.78125 -1.421875 
Q 19.734375 -1.421875 13.25 4.234375 
Q 6.78125 9.90625 6.78125 20.515625 
Q 6.78125 27.484375 10.78125 32.3125 
Q 14.796875 37.15625 21.921875 38.8125 
z
M 18.3125 54.390625 
Q 18.3125 48.734375 21.84375 45.5625 
Q 25.390625 42.390625 31.78125 42.390625 
Q 38.140625 42.390625 41.71875 45.5625 
Q 45.3125 48.734375 45.3125 54.390625 
Q 45.3125 60.0625 41.71875 63.234375 
Q 38.140625 66.40625 31.78125 66.40625 
Q 25.390625 66.40625 21.84375 63.234375 
Q 18.3125 60.0625 18.3125 54.390625 
z
" id="DejaVuSans-56"/>
       </defs>
       <use xlink:href="#DejaVuSans-49"/>
       <use x="63.623047" xlink:href="#DejaVuSans-56"/>
       <use x="127.246094" xlink:href="#DejaVuSans-48"/>
      </g>
     </g>
    </g>
    <g id="xtick_4">
     <g id="line2d_7">
      <path clip-path="url(#pe1cee09e18)" d="M 359.1 630 
L 359.1 86.4 
" style="fill:none;stroke:#b0b0b0;stroke-linecap:square;stroke-width:0.8;"/>
     </g>
     <g id="line2d_8">
      <g>
       <use style="stroke:#000000;stroke-width:0.8;" x="359.1" xlink:href="#mcc255a53e3" y="630"/>
      </g>
     </g>
     <g id="text_4">
      <!-- 270 -->
      <g transform="translate(349.55625 644.598438)scale(0.1 -0.1)">
       <defs>
        <path d="M 19.1875 8.296875 
L 53.609375 8.296875 
L 53.609375 0 
L 7.328125 0 
L 7.328125 8.296875 
Q 12.9375 14.109375 22.625 23.890625 
Q 32.328125 33.6875 34.8125 36.53125 
Q 39.546875 41.84375 41.421875 45.53125 
Q 43.3125 49.21875 43.3125 52.78125 
Q 43.3125 58.59375 39.234375 62.25 
Q 35.15625 65.921875 28.609375 65.921875 
Q 23.96875 65.921875 18.8125 64.3125 
Q 13.671875 62.703125 7.8125 59.421875 
L 7.8125 69.390625 
Q 13.765625 71.78125 18.9375 73 
Q 24.125 74.21875 28.421875 74.21875 
Q 39.75 74.21875 46.484375 68.546875 
Q 53.21875 62.890625 53.21875 53.421875 
Q 53.21875 48.921875 51.53125 44.890625 
Q 49.859375 40.875 45.40625 35.40625 
Q 44.1875 33.984375 37.640625 27.21875 
Q 31.109375 20.453125 19.1875 8.296875 
z
" id="DejaVuSans-50"/>
        <path d="M 8.203125 72.90625 
L 55.078125 72.90625 
L 55.078125 68.703125 
L 28.609375 0 
L 18.3125 0 
L 43.21875 64.59375 
L 8.203125 64.59375 
z
" id="DejaVuSans-55"/>
       </defs>
       <use xlink:href="#DejaVuSans-50"/>
       <use x="63.623047" xlink:href="#DejaVuSans-55"/>
       <use x="127.246094" xlink:href="#DejaVuSans-48"/>
      </g>
     </g>
    </g>
    <g id="xtick_5">
     <g id="line2d_9">
      <path clip-path="url(#pe1cee09e18)" d="M 442.8 630 
L 442.8 86.4 
" style="fill:none;stroke:#b0b0b0;stroke-linecap:square;stroke-width:0.8;"/>
     </g>
     <g id="line2d_10">
      <g>
       <use style="stroke:#000000;stroke-width:0.8;" x="442.8" xlink:href="#mcc255a53e3" y="630"/>
      </g>
     </g>
     <g id="text_5">
      <!-- 360 -->
      <g transform="translate(433.25625 644.598438)scale(0.1 -0.1)">
       <defs>
        <path d="M 40.578125 39.3125 
Q 47.65625 37.796875 51.625 33 
Q 55.609375 28.21875 55.609375 21.1875 
Q 55.609375 10.40625 48.1875 4.484375 
Q 40.765625 -1.421875 27.09375 -1.421875 
Q 22.515625 -1.421875 17.65625 -0.515625 
Q 12.796875 0.390625 7.625 2.203125 
L 7.625 11.71875 
Q 11.71875 9.328125 16.59375 8.109375 
Q 21.484375 6.890625 26.8125 6.890625 
Q 36.078125 6.890625 40.9375 10.546875 
Q 45.796875 14.203125 45.796875 21.1875 
Q 45.796875 27.640625 41.28125 31.265625 
Q 36.765625 34.90625 28.71875 34.90625 
L 20.21875 34.90625 
L 20.21875 43.015625 
L 29.109375 43.015625 
Q 36.375 43.015625 40.234375 45.921875 
Q 44.09375 48.828125 44.09375 54.296875 
Q 44.09375 59.90625 40.109375 62.90625 
Q 36.140625 65.921875 28.71875 65.921875 
Q 24.65625 65.921875 20.015625 65.03125 
Q 15.375 64.15625 9.8125 62.3125 
L 9.8125 71.09375 
Q 15.4375 72.65625 20.34375 73.4375 
Q 25.25 74.21875 29.59375 74.21875 
Q 40.828125 74.21875 47.359375 69.109375 
Q 53.90625 64.015625 53.90625 55.328125 
Q 53.90625 49.265625 50.4375 45.09375 
Q 46.96875 40.921875 40.578125 39.3125 
z
" id="DejaVuSans-51"/>
        <path d="M 33.015625 40.375 
Q 26.375 40.375 22.484375 35.828125 
Q 18.609375 31.296875 18.609375 23.390625 
Q 18.609375 15.53125 22.484375 10.953125 
Q 26.375 6.390625 33.015625 6.390625 
Q 39.65625 6.390625 43.53125 10.953125 
Q 47.40625 15.53125 47.40625 23.390625 
Q 47.40625 31.296875 43.53125 35.828125 
Q 39.65625 40.375 33.015625 40.375 
z
M 52.59375 71.296875 
L 52.59375 62.3125 
Q 48.875 64.0625 45.09375 64.984375 
Q 41.3125 65.921875 37.59375 65.921875 
Q 27.828125 65.921875 22.671875 59.328125 
Q 17.53125 52.734375 16.796875 39.40625 
Q 19.671875 43.65625 24.015625 45.921875 
Q 28.375 48.1875 33.59375 48.1875 
Q 44.578125 48.1875 50.953125 41.515625 
Q 57.328125 34.859375 57.328125 23.390625 
Q 57.328125 12.15625 50.6875 5.359375 
Q 44.046875 -1.421875 33.015625 -1.421875 
Q 20.359375 -1.421875 13.671875 8.265625 
Q 6.984375 17.96875 6.984375 36.375 
Q 6.984375 53.65625 15.1875 63.9375 
Q 23.390625 74.21875 37.203125 74.21875 
Q 40.921875 74.21875 44.703125 73.484375 
Q 48.484375 72.75 52.59375 71.296875 
z
" id="DejaVuSans-54"/>
       </defs>
       <use xlink:href="#DejaVuSans-51"/>
       <use x="63.623047" xlink:href="#DejaVuSans-54"/>
       <use x="127.246094" xlink:href="#DejaVuSans-48"/>
      </g>
     </g>
    </g>
    <g id="xtick_6">
     <g id="line2d_11">
      <path clip-path="url(#pe1cee09e18)" d="M 526.5 630 
L 526.5 86.4 
" style="fill:none;stroke:#b0b0b0;stroke-linecap:square;stroke-width:0.8;"/>
     </g>
     <g id="line2d_12">
      <g>
       <use style="stroke:#000000;stroke-width:0.8;" x="526.5" xlink:href="#mcc255a53e3" y="630"/>
      </g>
     </g>
     <g id="text_6">
      <!-- 450 -->
      <g transform="translate(516.95625 644.598438)scale(0.1 -0.1)">
       <defs>
        <path d="M 37.796875 64.3125 
L 12.890625 25.390625 
L 37.796875 25.390625 
z
M 35.203125 72.90625 
L 47.609375 72.90625 
L 47.609375 25.390625 
L 58.015625 25.390625 
L 58.015625 17.1875 
L 47.609375 17.1875 
L 47.609375 0 
L 37.796875 0 
L 37.796875 17.1875 
L 4.890625 17.1875 
L 4.890625 26.703125 
z
" id="DejaVuSans-52"/>
        <path d="M 10.796875 72.90625 
L 49.515625 72.90625 
L 49.515625 64.59375 
L 19.828125 64.59375 
L 19.828125 46.734375 
Q 21.96875 47.46875 24.109375 47.828125 
Q 26.265625 48.1875 28.421875 48.1875 
Q 40.625 48.1875 47.75 41.5 
Q 54.890625 34.8125 54.890625 23.390625 
Q 54.890625 11.625 47.5625 5.09375 
Q 40.234375 -1.421875 26.90625 -1.421875 
Q 22.3125 -1.421875 17.546875 -0.640625 
Q 12.796875 0.140625 7.71875 1.703125 
L 7.71875 11.625 
Q 12.109375 9.234375 16.796875 8.0625 
Q 21.484375 6.890625 26.703125 6.890625 
Q 35.15625 6.890625 40.078125 11.328125 
Q 45.015625 15.765625 45.015625 23.390625 
Q 45.015625 31 40.078125 35.4375 
Q 35.15625 39.890625 26.703125 39.890625 
Q 22.75 39.890625 18.8125 39.015625 
Q 14.890625 38.140625 10.796875 36.28125 
z
" id="DejaVuSans-53"/>
       </defs>
       <use xlink:href="#DejaVuSans-52"/>
       <use x="63.623047" xlink:href="#DejaVuSans-53"/>
       <use x="127.246094" xlink:href="#DejaVuSans-48"/>
      </g>
     </g>
    </g>
    <g id="xtick_7">
     <g id="line2d_13">
      <path clip-path="url(#pe1cee09e18)" d="M 610.2 630 
L 610.2 86.4 
" style="fill:none;stroke:#b0b0b0;stroke-linecap:square;stroke-width:0.8;"/>
     </g>
     <g id="line2d_14">
      <g>
       <use style="stroke:#000000;stroke-width:0.8;" x="610.2" xlink:href="#mcc255a53e3" y="630"/>
      </g>
     </g>
     <g id="text_7">
      <!-- 540 -->
      <g transform="translate(600.65625 644.598438)scale(0.1 -0.1)">
       <use xlink:href="#DejaVuSans-53"/>
       <use x="63.623047" xlink:href="#DejaVuSans-52"/>
       <use x="127.246094" xlink:href="#DejaVuSans-48"/>
      </g>
     </g>
    </g>
    <g id="xtick_8">
     <g id="line2d_15">
      <path clip-path="url(#pe1cee09e18)" d="M 693.9 630 
L 693.9 86.4 
" style="fill:none;stroke:#b0b0b0;stroke-linecap:square;stroke-width:0.8;"/>
     </g>
     <g id="line2d_16">
      <g>
       <use style="stroke:#000000;stroke-width:0.8;" x="693.9" xlink:href="#mcc255a53e3" y="630"/>
      </g>
     </g>
     <g id="text_8">
      <!-- 630 -->
      <g transform="translate(684.35625 644.598438)scale(0.1 -0.1)">
       <use xlink:href="#DejaVuSans-54"/>
       <use x="63.623047" xlink:href="#DejaVuSans-51"/>
       <use x="127.246094" xlink:href="#DejaVuSans-48"/>
      </g>
     </g>
    </g>
    <g id="xtick_9">
     <g id="line2d_17">
      <path clip-path="url(#pe1cee09e18)" d="M 777.6 630 
L 777.6 86.4 
" style="fill:none;stroke:#b0b0b0;stroke-linecap:square;stroke-width:0.8;"/>
     </g>
     <g id="line2d_18">
      <g>
       <use style="stroke:#000000;stroke-width:0.8;" x="777.6" xlink:href="#mcc255a53e3" y="630"/>
      </g>
     </g>
     <g id="text_9">
      <!-- 720 -->
      <g transform="translate(768.05625 644.598438)scale(0.1 -0.1)">
       <use xlink:href="#DejaVuSans-55"/>
       <use x="63.623047" xlink:href="#DejaVuSans-50"/>
       <use x="127.246094" xlink:href="#DejaVuSans-48"/>
      </g>
     </g>
    </g>
    <g id="text_10">
     <!-- Angle [deg] -->
     <g transform="translate(413.655469 658.276562)scale(0.1 -0.1)">
      <defs>
       <path d="M 34.1875 63.1875 
L 20.796875 26.90625 
L 47.609375 26.90625 
z
M 28.609375 72.90625 
L 39.796875 72.90625 
L 67.578125 0 
L 57.328125 0 
L 50.6875 18.703125 
L 17.828125 18.703125 
L 11.1875 0 
L 0.78125 0 
z
" id="DejaVuSans-65"/>
       <path d="M 54.890625 33.015625 
L 54.890625 0 
L 45.90625 0 
L 45.90625 32.71875 
Q 45.90625 40.484375 42.875 44.328125 
Q 39.84375 48.1875 33.796875 48.1875 
Q 26.515625 48.1875 22.3125 43.546875 
Q 18.109375 38.921875 18.109375 30.90625 
L 18.109375 0 
L 9.078125 0 
L 9.078125 54.6875 
L 18.109375 54.6875 
L 18.109375 46.1875 
Q 21.34375 51.125 25.703125 53.5625 
Q 30.078125 56 35.796875 56 
Q 45.21875 56 50.046875 50.171875 
Q 54.890625 44.34375 54.890625 33.015625 
z
" id="DejaVuSans-110"/>
       <path d="M 45.40625 27.984375 
Q 45.40625 37.75 41.375 43.109375 
Q 37.359375 48.484375 30.078125 48.484375 
Q 22.859375 48.484375 18.828125 43.109375 
Q 14.796875 37.75 14.796875 27.984375 
Q 14.796875 18.265625 18.828125 12.890625 
Q 22.859375 7.515625 30.078125 7.515625 
Q 37.359375 7.515625 41.375 12.890625 
Q 45.40625 18.265625 45.40625 27.984375 
z
M 54.390625 6.78125 
Q 54.390625 -7.171875 48.1875 -13.984375 
Q 42 -20.796875 29.203125 -20.796875 
Q 24.46875 -20.796875 20.265625 -20.09375 
Q 16.0625 -19.390625 12.109375 -17.921875 
L 12.109375 -9.1875 
Q 16.0625 -11.328125 19.921875 -12.34375 
Q 23.78125 -13.375 27.78125 -13.375 
Q 36.625 -13.375 41.015625 -8.765625 
Q 45.40625 -4.15625 45.40625 5.171875 
L 45.40625 9.625 
Q 42.625 4.78125 38.28125 2.390625 
Q 33.9375 0 27.875 0 
Q 17.828125 0 11.671875 7.65625 
Q 5.515625 15.328125 5.515625 27.984375 
Q 5.515625 40.671875 11.671875 48.328125 
Q 17.828125 56 27.875 56 
Q 33.9375 56 38.28125 53.609375 
Q 42.625 51.21875 45.40625 46.390625 
L 45.40625 54.6875 
L 54.390625 54.6875 
z
" id="DejaVuSans-103"/>
       <path d="M 9.421875 75.984375 
L 18.40625 75.984375 
L 18.40625 0 
L 9.421875 0 
z
" id="DejaVuSans-108"/>
       <path d="M 56.203125 29.59375 
L 56.203125 25.203125 
L 14.890625 25.203125 
Q 15.484375 15.921875 20.484375 11.0625 
Q 25.484375 6.203125 34.421875 6.203125 
Q 39.59375 6.203125 44.453125 7.46875 
Q 49.3125 8.734375 54.109375 11.28125 
L 54.109375 2.78125 
Q 49.265625 0.734375 44.1875 -0.34375 
Q 39.109375 -1.421875 33.890625 -1.421875 
Q 20.796875 -1.421875 13.15625 6.1875 
Q 5.515625 13.8125 5.515625 26.8125 
Q 5.515625 40.234375 12.765625 48.109375 
Q 20.015625 56 32.328125 56 
Q 43.359375 56 49.78125 48.890625 
Q 56.203125 41.796875 56.203125 29.59375 
z
M 47.21875 32.234375 
Q 47.125 39.59375 43.09375 43.984375 
Q 39.0625 48.390625 32.421875 48.390625 
Q 24.90625 48.390625 20.390625 44.140625 
Q 15.875 39.890625 15.1875 32.171875 
z
" id="DejaVuSans-101"/>
       <path id="DejaVuSans-32"/>
       <path d="M 8.59375 75.984375 
L 29.296875 75.984375 
L 29.296875 69 
L 17.578125 69 
L 17.578125 -6.203125 
L 29.296875 -6.203125 
L 29.296875 -13.1875 
L 8.59375 -13.1875 
z
" id="DejaVuSans-91"/>
       <path d="M 45.40625 46.390625 
L 45.40625 75.984375 
L 54.390625 75.984375 
L 54.390625 0 
L 45.40625 0 
L 45.40625 8.203125 
Q 42.578125 3.328125 38.25 0.953125 
Q 33.9375 -1.421875 27.875 -1.421875 
Q 17.96875 -1.421875 11.734375 6.484375 
Q 5.515625 14.40625 5.515625 27.296875 
Q 5.515625 40.1875 11.734375 48.09375 
Q 17.96875 56 27.875 56 
Q 33.9375 56 38.25 53.625 
Q 42.578125 51.265625 45.40625 46.390625 
z
M 14.796875 27.296875 
Q 14.796875 17.390625 18.875 11.75 
Q 22.953125 6.109375 30.078125 6.109375 
Q 37.203125 6.109375 41.296875 11.75 
Q 45.40625 17.390625 45.40625 27.296875 
Q 45.40625 37.203125 41.296875 42.84375 
Q 37.203125 48.484375 30.078125 48.484375 
Q 22.953125 48.484375 18.875 42.84375 
Q 14.796875 37.203125 14.796875 27.296875 
z
" id="DejaVuSans-100"/>
       <path d="M 30.421875 75.984375 
L 30.421875 -13.1875 
L 9.71875 -13.1875 
L 9.71875 -6.203125 
L 21.390625 -6.203125 
L 21.390625 69 
L 9.71875 69 
L 9.71875 75.984375 
z
" id="DejaVuSans-93"/>
      </defs>
      <use xlink:href="#DejaVuSans-65"/>
      <use x="68.408203" xlink:href="#DejaVuSans-110"/>
      <use x="131.787109" xlink:href="#DejaVuSans-103"/>
      <use x="195.263672" xlink:href="#DejaVuSans-108"/>
      <use x="223.046875" xlink:href="#DejaVuSans-101"/>
      <use x="284.570312" xlink:href="#DejaVuSans-32"/>
      <use x="316.357422" xlink:href="#DejaVuSans-91"/>
      <use x="355.371094" xlink:href="#DejaVuSans-100"/>
      <use x="418.847656" xlink:href="#DejaVuSans-101"/>
      <use x="480.371094" xlink:href="#DejaVuSans-103"/>
      <use x="543.847656" xlink:href="#DejaVuSans-93"/>
     </g>
    </g>
   </g>
   <g id="matplotlib.axis_2">
    <g id="ytick_1">
     <g id="line2d_19">
      <path clip-path="url(#pe1cee09e18)" d="M 108 619.019583 
L 777.6 619.019583 
" style="fill:none;stroke:#b0b0b0;stroke-linecap:square;stroke-width:0.8;"/>
     </g>
     <g id="line2d_20">
      <defs>
       <path d="M 0 0 
L -3.5 0 
" id="m7abfaf5393" style="stroke:#000000;stroke-width:0.8;"/>
      </defs>
      <g>
       <use style="stroke:#000000;stroke-width:0.8;" x="108" xlink:href="#m7abfaf5393" y="619.019583"/>
      </g>
     </g>
     <g id="text_11">
      <!-- −2.0 -->
      <g transform="translate(76.717187 622.818802)scale(0.1 -0.1)">
       <defs>
        <path d="M 10.59375 35.5 
L 73.1875 35.5 
L 73.1875 27.203125 
L 10.59375 27.203125 
z
" id="DejaVuSans-8722"/>
        <path d="M 10.6875 12.40625 
L 21 12.40625 
L 21 0 
L 10.6875 0 
z
" id="DejaVuSans-46"/>
       </defs>
       <use xlink:href="#DejaVuSans-8722"/>
       <use x="83.789062" xlink:href="#DejaVuSans-50"/>
       <use x="147.412109" xlink:href="#DejaVuSans-46"/>
       <use x="179.199219" xlink:href="#DejaVuSans-48"/>
      </g>
     </g>
    </g>
    <g id="ytick_2">
     <g id="line2d_21">
      <path clip-path="url(#pe1cee09e18)" d="M 108 550.382782 
L 777.6 550.382782 
" style="fill:none;stroke:#b0b0b0;stroke-linecap:square;stroke-width:0.8;"/>
     </g>
     <g id="line2d_22">
      <g>
       <use style="stroke:#000000;stroke-width:0.8;" x="108" xlink:href="#m7abfaf5393" y="550.382782"/>
      </g>
     </g>
     <g id="text_12">
      <!-- −1.5 -->
      <g transform="translate(76.717187 554.182001)scale(0.1 -0.1)">
       <use xlink:href="#DejaVuSans-8722"/>
       <use x="83.789062" xlink:href="#DejaVuSans-49"/>
       <use x="147.412109" xlink:href="#DejaVuSans-46"/>
       <use x="179.199219" xlink:href="#DejaVuSans-53"/>
      </g>
     </g>
    </g>
    <g id="ytick_3">
     <g id="line2d_23">
      <path clip-path="url(#pe1cee09e18)" d="M 108 481.74598 
L 777.6 481.74598 
" style="fill:none;stroke:#b0b0b0;stroke-linecap:square;stroke-width:0.8;"/>
     </g>
     <g id="line2d_24">
      <g>
       <use style="stroke:#000000;stroke-width:0.8;" x="108" xlink:href="#m7abfaf5393" y="481.74598"/>
      </g>
     </g>
     <g id="text_13">
      <!-- −1.0 -->
      <g transform="translate(76.717187 485.545199)scale(0.1 -0.1)">
       <use xlink:href="#DejaVuSans-8722"/>
       <use x="83.789062" xlink:href="#DejaVuSans-49"/>
       <use x="147.412109" xlink:href="#DejaVuSans-46"/>
       <use x="179.199219" xlink:href="#DejaVuSans-48"/>
      </g>
     </g>
    </g>
    <g id="ytick_4">
     <g id="line2d_25">
      <path clip-path="url(#pe1cee09e18)" d="M 108 413.109179 
L 777.6 413.109179 
" style="fill:none;stroke:#b0b0b0;stroke-linecap:square;stroke-width:0.8;"/>
     </g>
     <g id="line2d_26">
      <g>
       <use style="stroke:#000000;stroke-width:0.8;" x="108" xlink:href="#m7abfaf5393" y="413.109179"/>
      </g>
     </g>
     <g id="text_14">
      <!-- −0.5 -->
      <g transform="translate(76.717187 416.908397)scale(0.1 -0.1)">
       <use xlink:href="#DejaVuSans-8722"/>
       <use x="83.789062" xlink:href="#DejaVuSans-48"/>
       <use x="147.412109" xlink:href="#DejaVuSans-46"/>
       <use x="179.199219" xlink:href="#DejaVuSans-53"/>
      </g>
     </g>
    </g>
    <g id="ytick_5">
     <g id="line2d_27">
      <path clip-path="url(#pe1cee09e18)" d="M 108 344.472377 
L 777.6 344.472377 
" style="fill:none;stroke:#b0b0b0;stroke-linecap:square;stroke-width:0.8;"/>
     </g>
     <g id="line2d_28">
      <g>
       <use style="stroke:#000000;stroke-width:0.8;" x="108" xlink:href="#m7abfaf5393" y="344.472377"/>
      </g>
     </g>
     <g id="text_15">
      <!-- 0.0 -->
      <g transform="translate(85.096875 348.271596)scale(0.1 -0.1)">
       <use xlink:href="#DejaVuSans-48"/>
       <use x="63.623047" xlink:href="#DejaVuSans-46"/>
       <use x="95.410156" xlink:href="#DejaVuSans-48"/>
      </g>
     </g>
    </g>
    <g id="ytick_6">
     <g id="line2d_29">
      <path clip-path="url(#pe1cee09e18)" d="M 108 275.835575 
L 777.6 275.835575 
" style="fill:none;stroke:#b0b0b0;stroke-linecap:square;stroke-width:0.8;"/>
     </g>
     <g id="line2d_30">
      <g>
       <use style="stroke:#000000;stroke-width:0.8;" x="108" xlink:href="#m7abfaf5393" y="275.835575"/>
      </g>
     </g>
     <g id="text_16">
      <!-- 0.5 -->
      <g transform="translate(85.096875 279.634794)scale(0.1 -0.1)">
       <use xlink:href="#DejaVuSans-48"/>
       <use x="63.623047" xlink:href="#DejaVuSans-46"/>
       <use x="95.410156" xlink:href="#DejaVuSans-53"/>
      </g>
     </g>
    </g>
    <g id="ytick_7">
     <g id="line2d_31">
      <path clip-path="url(#pe1cee09e18)" d="M 108 207.198774 
L 777.6 207.198774 
" style="fill:none;stroke:#b0b0b0;stroke-linecap:square;stroke-width:0.8;"/>
     </g>
     <g id="line2d_32">
      <g>
       <use style="stroke:#000000;stroke-width:0.8;" x="108" xlink:href="#m7abfaf5393" y="207.198774"/>
      </g>
     </g>
     <g id="text_17">
      <!-- 1.0 -->
      <g transform="translate(85.096875 210.997992)scale(0.1 -0.1)">
       <use xlink:href="#DejaVuSans-49"/>
       <use x="63.623047" xlink:href="#DejaVuSans-46"/>
       <use x="95.410156" xlink:href="#DejaVuSans-48"/>
      </g>
     </g>
    </g>
    <g id="ytick_8">
     <g id="line2d_33">
      <path clip-path="url(#pe1cee09e18)" d="M 108 138.561972 
L 777.6 138.561972 
" style="fill:none;stroke:#b0b0b0;stroke-linecap:square;stroke-width:0.8;"/>
     </g>
     <g id="line2d_34">
      <g>
       <use style="stroke:#000000;stroke-width:0.8;" x="108" xlink:href="#m7abfaf5393" y="138.561972"/>
      </g>
     </g>
     <g id="text_18">
      <!-- 1.5 -->
      <g transform="translate(85.096875 142.361191)scale(0.1 -0.1)">
       <use xlink:href="#DejaVuSans-49"/>
       <use x="63.623047" xlink:href="#DejaVuSans-46"/>
       <use x="95.410156" xlink:href="#DejaVuSans-53"/>
      </g>
     </g>
    </g>
    <g id="text_19">
     <!-- sin(x) -->
     <g transform="translate(70.6375 372.223437)rotate(-90)scale(0.1 -0.1)">
      <defs>
       <path d="M 44.28125 53.078125 
L 44.28125 44.578125 
Q 40.484375 46.53125 36.375 47.5 
Q 32.28125 48.484375 27.875 48.484375 
Q 21.1875 48.484375 17.84375 46.4375 
Q 14.5 44.390625 14.5 40.28125 
Q 14.5 37.15625 16.890625 35.375 
Q 19.28125 33.59375 26.515625 31.984375 
L 29.59375 31.296875 
Q 39.15625 29.25 43.1875 25.515625 
Q 47.21875 21.78125 47.21875 15.09375 
Q 47.21875 7.46875 41.1875 3.015625 
Q 35.15625 -1.421875 24.609375 -1.421875 
Q 20.21875 -1.421875 15.453125 -0.5625 
Q 10.6875 0.296875 5.421875 2 
L 5.421875 11.28125 
Q 10.40625 8.6875 15.234375 7.390625 
Q 20.0625 6.109375 24.8125 6.109375 
Q 31.15625 6.109375 34.5625 8.28125 
Q 37.984375 10.453125 37.984375 14.40625 
Q 37.984375 18.0625 35.515625 20.015625 
Q 33.0625 21.96875 24.703125 23.78125 
L 21.578125 24.515625 
Q 13.234375 26.265625 9.515625 29.90625 
Q 5.8125 33.546875 5.8125 39.890625 
Q 5.8125 47.609375 11.28125 51.796875 
Q 16.75 56 26.8125 56 
Q 31.78125 56 36.171875 55.265625 
Q 40.578125 54.546875 44.28125 53.078125 
z
" id="DejaVuSans-115"/>
       <path d="M 9.421875 54.6875 
L 18.40625 54.6875 
L 18.40625 0 
L 9.421875 0 
z
M 9.421875 75.984375 
L 18.40625 75.984375 
L 18.40625 64.59375 
L 9.421875 64.59375 
z
" id="DejaVuSans-105"/>
       <path d="M 31 75.875 
Q 24.46875 64.65625 21.28125 53.65625 
Q 18.109375 42.671875 18.109375 31.390625 
Q 18.109375 20.125 21.3125 9.0625 
Q 24.515625 -2 31 -13.1875 
L 23.1875 -13.1875 
Q 15.875 -1.703125 12.234375 9.375 
Q 8.59375 20.453125 8.59375 31.390625 
Q 8.59375 42.28125 12.203125 53.3125 
Q 15.828125 64.359375 23.1875 75.875 
z
" id="DejaVuSans-40"/>
       <path d="M 54.890625 54.6875 
L 35.109375 28.078125 
L 55.90625 0 
L 45.3125 0 
L 29.390625 21.484375 
L 13.484375 0 
L 2.875 0 
L 24.125 28.609375 
L 4.6875 54.6875 
L 15.28125 54.6875 
L 29.78125 35.203125 
L 44.28125 54.6875 
z
" id="DejaVuSans-120"/>
       <path d="M 8.015625 75.875 
L 15.828125 75.875 
Q 23.140625 64.359375 26.78125 53.3125 
Q 30.421875 42.28125 30.421875 31.390625 
Q 30.421875 20.453125 26.78125 9.375 
Q 23.140625 -1.703125 15.828125 -13.1875 
L 8.015625 -13.1875 
Q 14.5 -2 17.703125 9.0625 
Q 20.90625 20.125 20.90625 31.390625 
Q 20.90625 42.671875 17.703125 53.65625 
Q 14.5 64.65625 8.015625 75.875 
z
" id="DejaVuSans-41"/>
      </defs>
      <use xlink:href="#DejaVuSans-115"/>
      <use x="52.099609" xlink:href="#DejaVuSans-105"/>
      <use x="79.882812" xlink:href="#DejaVuSans-110"/>
      <use x="143.261719" xlink:href="#DejaVuSans-40"/>
      <use x="182.275391" xlink:href="#DejaVuSans-120"/>
      <use x="241.455078" xlink:href="#DejaVuSans-41"/>
     </g>
    </g>
   </g>
   <g id="line2d_35">
    <path clip-path="url(#pe1cee09e18)" d="M 41.04 475.027332 
L 43.278217 473.130869 
L 45.516435 471.007436 
L 47.754652 468.66078 
L 49.992869 466.09504 
L 52.231086 463.314742 
L 54.469304 460.324791 
L 56.707521 457.130462 
L 61.183955 450.151561 
L 65.66039 442.427264 
L 70.136825 434.012052 
L 74.613259 424.965283 
L 79.089694 415.350765 
L 83.566128 405.236315 
L 88.042563 394.693272 
L 94.757214 378.238469 
L 103.710084 355.512172 
L 119.377604 315.383485 
L 126.092256 298.753322 
L 132.806908 282.848193 
L 137.283343 272.772724 
L 141.759777 263.202981 
L 146.236212 254.206463 
L 150.712646 245.846625 
L 155.189081 238.182433 
L 159.665515 231.267945 
L 161.903733 228.107298 
L 164.14195 225.151933 
L 166.380167 222.407064 
L 168.618384 219.877534 
L 170.856602 217.567804 
L 173.094819 215.481951 
L 175.333036 213.623652 
L 177.571253 211.996187 
L 179.809471 210.602427 
L 182.047688 209.44483 
L 184.285905 208.525439 
L 186.524123 207.845875 
L 188.76234 207.407337 
L 191.000557 207.2106 
L 193.238774 207.256009 
L 195.476992 207.543485 
L 197.715209 208.072521 
L 199.953426 208.842184 
L 202.191643 209.851115 
L 204.429861 211.097535 
L 206.668078 212.579245 
L 208.906295 214.29363 
L 211.144513 216.237668 
L 213.38273 218.407928 
L 215.620947 220.800581 
L 217.859164 223.411406 
L 220.097382 226.235799 
L 222.335599 229.268776 
L 224.573816 232.504986 
L 229.050251 239.563922 
L 233.526685 247.362819 
L 238.00312 255.846667 
L 242.479554 264.955627 
L 246.955989 274.62545 
L 251.432423 284.78793 
L 258.147075 300.797757 
L 264.861727 317.500196 
L 276.052813 346.15412 
L 287.2439 374.734135 
L 293.958552 391.32236 
L 300.673203 407.167616 
L 305.149638 417.193664 
L 309.626072 426.70678 
L 314.102507 435.639864 
L 318.578942 443.929909 
L 323.055376 451.518442 
L 327.531811 458.351936 
L 329.770028 461.470264 
L 332.008245 464.382194 
L 334.246462 467.082587 
L 336.48468 469.566681 
L 338.722897 471.830092 
L 340.961114 473.868829 
L 343.199331 475.679294 
L 345.437549 477.258294 
L 347.675766 478.603042 
L 349.913983 479.711167 
L 352.152201 480.580714 
L 354.390418 481.210149 
L 356.628635 481.598361 
L 358.866852 481.744666 
L 361.10507 481.648805 
L 363.343287 481.310948 
L 365.581504 480.731691 
L 367.819721 479.912055 
L 370.057939 478.853486 
L 372.296156 477.557852 
L 374.534373 476.027439 
L 376.772591 474.264946 
L 379.010808 472.273483 
L 381.249025 470.056562 
L 383.487242 467.618095 
L 385.72546 464.962384 
L 387.963677 462.094113 
L 390.201894 459.018343 
L 394.678329 452.266365 
L 399.154763 444.754073 
L 403.631198 436.534456 
L 408.107632 427.665489 
L 412.584067 418.209729 
L 417.060501 408.23387 
L 421.536936 397.808277 
L 428.251588 381.488234 
L 437.204457 358.861198 
L 457.348412 307.456519 
L 464.063064 291.136477 
L 468.539499 280.710883 
L 473.015933 270.735025 
L 477.492368 261.279264 
L 481.968802 252.410297 
L 486.445237 244.19068 
L 490.921671 236.678389 
L 495.398106 229.926411 
L 497.636323 226.85064 
L 499.87454 223.98237 
L 502.112758 221.326658 
L 504.350975 218.888192 
L 506.589192 216.671271 
L 508.827409 214.679808 
L 511.065627 212.917315 
L 513.303844 211.386902 
L 515.542061 210.091268 
L 517.780279 209.032699 
L 520.018496 208.213063 
L 522.256713 207.633806 
L 524.49493 207.295948 
L 526.733148 207.200088 
L 528.971365 207.346392 
L 531.209582 207.734605 
L 533.447799 208.364039 
L 535.686017 209.233586 
L 537.924234 210.341712 
L 540.162451 211.68646 
L 542.400669 213.26546 
L 544.638886 215.075925 
L 546.877103 217.114661 
L 549.11532 219.378073 
L 551.353538 221.862166 
L 553.591755 224.56256 
L 555.829972 227.474489 
L 558.068189 230.592818 
L 562.544624 237.426312 
L 567.021058 245.014844 
L 571.497493 253.304889 
L 575.973928 262.237974 
L 580.450362 271.75109 
L 584.926797 281.777138 
L 589.403231 292.245399 
L 596.117883 308.6147 
L 605.070752 331.278749 
L 622.97649 377.072824 
L 629.691142 393.573366 
L 634.167577 404.156824 
L 638.644011 414.319304 
L 643.120446 423.989127 
L 647.59688 433.098087 
L 652.073315 441.581935 
L 656.549749 449.380831 
L 661.026184 456.439768 
L 663.264401 459.675978 
L 665.502618 462.708955 
L 667.740836 465.533347 
L 669.979053 468.144173 
L 672.21727 470.536826 
L 674.455487 472.707086 
L 676.693705 474.651123 
L 678.931922 476.365509 
L 681.170139 477.847219 
L 683.408357 479.093639 
L 685.646574 480.10257 
L 687.884791 480.872232 
L 690.123008 481.401268 
L 692.361226 481.688745 
L 694.599443 481.734154 
L 696.83766 481.537416 
L 699.075877 481.098879 
L 701.314095 480.419315 
L 703.552312 479.499924 
L 705.790529 478.342327 
L 708.028747 476.948566 
L 710.266964 475.321102 
L 712.505181 473.462803 
L 714.743398 471.376949 
L 716.981616 469.06722 
L 719.219833 466.53769 
L 721.45805 463.792821 
L 723.696267 460.837456 
L 725.934485 457.676809 
L 730.410919 450.762321 
L 734.887354 443.098129 
L 739.363788 434.738291 
L 743.840223 425.741773 
L 748.316657 416.172029 
L 752.793092 406.096561 
L 757.269526 395.586432 
L 763.984178 379.169128 
L 772.937047 356.469801 
L 790.842786 310.706284 
L 797.557437 294.251481 
L 802.033872 283.708439 
L 806.510306 273.593989 
L 810.986741 263.979471 
L 815.463175 254.932701 
L 819.93961 246.51749 
L 824.416045 238.793193 
L 828.892479 231.814292 
L 831.130696 228.619963 
L 833.368914 225.630012 
L 835.607131 222.849714 
L 837.845348 220.283974 
L 840.083565 217.937317 
L 842.321783 215.813885 
L 844.56 213.917422 
L 844.56 213.917422 
" style="fill:none;stroke:#1f77b4;stroke-linecap:square;stroke-width:1.5;"/>
   </g>
   <g id="line2d_36">
    <path clip-path="url(#pe1cee09e18)" d="M 50.34 486.067233 
L 52.578217 483.412185 
L 54.816435 480.439379 
L 57.054652 477.15406 
L 59.292869 473.562024 
L 61.531086 469.669607 
L 63.769304 465.483676 
L 66.007521 461.011615 
L 68.245738 456.261315 
L 72.722173 445.959989 
L 77.198607 434.652359 
L 81.675042 422.418181 
L 86.151476 409.343747 
L 90.627911 395.521278 
L 95.104345 381.048267 
L 101.818997 358.343372 
L 108.533649 334.765421 
L 135.392256 239.283619 
L 139.868691 224.303857 
L 144.345125 209.881218 
L 148.82156 196.117429 
L 153.297994 183.109572 
L 157.774429 170.949396 
L 162.250864 159.722673 
L 166.727298 149.508588 
L 168.965515 144.804092 
L 171.203733 140.379185 
L 173.44195 136.241674 
L 175.680167 132.398858 
L 177.918384 128.857515 
L 180.156602 125.623894 
L 182.394819 122.703699 
L 184.633036 120.102081 
L 186.871253 117.82363 
L 189.109471 115.872366 
L 191.347688 114.25173 
L 193.585905 112.964583 
L 195.824123 112.013193 
L 198.06234 111.399241 
L 200.300557 111.123808 
L 202.538774 111.187381 
L 204.776992 111.589848 
L 207.015209 112.330498 
L 209.253426 113.408025 
L 211.491643 114.820529 
L 213.729861 116.565517 
L 215.968078 118.639911 
L 218.206295 121.040051 
L 220.444513 123.761703 
L 222.68273 126.800067 
L 224.920947 130.149781 
L 227.159164 133.804937 
L 229.397382 137.759087 
L 231.635599 142.005254 
L 233.873816 146.535948 
L 236.112033 151.343177 
L 240.588468 161.752842 
L 245.064903 173.160826 
L 249.541337 185.486664 
L 254.017772 198.643417 
L 258.494206 212.538285 
L 262.970641 227.073262 
L 269.685292 249.850611 
L 276.399944 273.475432 
L 301.020334 361.23677 
L 307.734986 383.806868 
L 312.211421 398.16555 
L 316.687855 411.85504 
L 321.16429 424.77878 
L 325.640724 436.845614 
L 330.117159 447.970431 
L 334.593593 458.074762 
L 336.831811 462.721679 
L 339.070028 467.087339 
L 341.308245 471.16404 
L 343.546462 474.94459 
L 345.78468 478.422321 
L 348.022897 481.591098 
L 350.261114 484.445329 
L 352.499331 486.97998 
L 354.737549 489.190579 
L 356.975766 491.073227 
L 359.213983 492.624602 
L 361.452201 493.841968 
L 363.690418 494.723177 
L 365.928635 495.266674 
L 368.166852 495.471501 
L 370.40507 495.337296 
L 372.643287 494.864296 
L 374.881504 494.053335 
L 377.119721 492.905845 
L 379.357939 491.423848 
L 381.596156 489.609961 
L 383.834373 487.467382 
L 386.072591 484.999892 
L 388.310808 482.211844 
L 390.549025 479.108155 
L 392.787242 475.694302 
L 395.02546 471.976306 
L 397.263677 467.960727 
L 399.501894 463.654649 
L 401.740111 459.065667 
L 403.978329 454.201879 
L 408.454763 443.684671 
L 412.931198 432.177207 
L 417.407632 419.760653 
L 421.884067 406.522589 
L 426.360501 392.556387 
L 430.836936 377.960556 
L 437.551588 355.112496 
L 444.26624 331.442616 
L 468.88663 243.742545 
L 475.601281 221.249755 
L 480.077716 206.956131 
L 484.55415 193.341989 
L 489.030585 180.503356 
L 493.507019 168.530786 
L 497.983454 157.508728 
L 502.459889 147.514924 
L 504.698106 142.925943 
L 506.936323 138.619865 
L 509.17454 134.604286 
L 511.412758 130.88629 
L 513.650975 127.472437 
L 515.889192 124.368748 
L 518.127409 121.580699 
L 520.365627 119.113209 
L 522.603844 116.970631 
L 524.842061 115.156743 
L 527.080279 113.674747 
L 529.318496 112.527257 
L 531.556713 111.716296 
L 533.79493 111.243296 
L 536.033148 111.109091 
L 538.271365 111.313918 
L 540.509582 111.857415 
L 542.747799 112.738624 
L 544.986017 113.955989 
L 547.224234 115.507365 
L 549.462451 117.390013 
L 551.700669 119.600612 
L 553.938886 122.135263 
L 556.177103 124.989494 
L 558.41532 128.15827 
L 560.653538 131.636001 
L 562.891755 135.416552 
L 565.129972 139.493253 
L 567.368189 143.858913 
L 569.606407 148.505829 
L 574.082841 158.610161 
L 578.559276 169.734978 
L 583.03571 181.801812 
L 587.512145 194.725552 
L 591.988579 208.415042 
L 596.465014 222.773723 
L 603.179666 245.343821 
L 609.894318 268.832861 
L 621.085404 309.007521 
L 632.27649 348.930923 
L 638.991142 372.031681 
L 643.467577 386.848522 
L 647.944011 401.075994 
L 652.420446 414.613746 
L 656.89688 427.36629 
L 661.373315 439.243677 
L 665.849749 450.162132 
L 670.326184 460.044643 
L 672.564401 464.575338 
L 674.802618 468.821505 
L 677.040836 472.775654 
L 679.279053 476.43081 
L 681.51727 479.780525 
L 683.755487 482.818888 
L 685.993705 485.540541 
L 688.231922 487.940681 
L 690.470139 490.015075 
L 692.708357 491.760063 
L 694.946574 493.172566 
L 697.184791 494.250094 
L 699.423008 494.990744 
L 701.661226 495.393211 
L 703.899443 495.456784 
L 706.13766 495.181351 
L 708.375877 494.567399 
L 710.614095 493.616009 
L 712.852312 492.328861 
L 715.090529 490.708226 
L 717.328747 488.756961 
L 719.566964 486.478511 
L 721.805181 483.876893 
L 724.043398 480.956698 
L 726.281616 477.723076 
L 728.519833 474.181734 
L 730.75805 470.338918 
L 732.996267 466.201407 
L 735.234485 461.7765 
L 737.472702 457.072004 
L 741.949136 446.857919 
L 746.425571 435.631195 
L 750.902006 423.47102 
L 755.37844 410.463163 
L 759.854875 396.699374 
L 764.331309 382.276734 
L 771.045961 359.631056 
L 777.760613 336.0919 
L 791.189916 287.834582 
L 800.142786 256.017766 
L 806.857437 232.981042 
L 811.333872 218.220783 
L 815.810306 204.060552 
L 820.286741 190.600228 
L 824.763175 177.93475 
L 829.23961 166.153454 
L 833.716045 155.339438 
L 838.192479 145.568976 
L 840.430696 141.096916 
L 842.668914 136.910985 
L 844.907131 133.018568 
L 847.145348 129.426532 
L 849.383565 126.141213 
L 851.621783 123.168407 
L 853.86 120.513359 
L 853.86 120.513359 
" style="fill:none;stroke:#ff7f0e;stroke-linecap:square;stroke-width:1.5;"/>
   </g>
   <g id="line2d_37">
    <path clip-path="url(#pe1cee09e18)" d="M 10.35 501.138323 
L 12.588217 498.862567 
L 14.826435 496.314448 
L 17.064652 493.498461 
L 19.302869 490.419572 
L 21.541086 487.083215 
L 23.779304 483.495274 
L 26.017521 479.662079 
L 28.255738 475.590393 
L 32.732173 466.760686 
L 37.208607 457.068431 
L 41.685042 446.581993 
L 46.161476 435.375335 
L 50.637911 423.527504 
L 55.114345 411.122066 
L 61.828997 391.660728 
L 68.543649 371.451055 
L 95.402256 289.609511 
L 102.116908 270.523356 
L 106.593343 258.432794 
L 111.069777 246.949102 
L 115.546212 236.15328 
L 120.022646 226.121474 
L 124.499081 216.924444 
L 128.975515 208.627059 
L 131.213733 204.834282 
L 133.45195 201.287844 
L 135.690167 197.994001 
L 137.928384 194.958565 
L 140.166602 192.18689 
L 142.404819 189.683865 
L 144.643036 187.453907 
L 146.881253 185.500949 
L 149.119471 183.828437 
L 151.357688 182.439321 
L 153.595905 181.336051 
L 155.834123 180.520575 
L 158.07234 179.994329 
L 160.310557 179.758244 
L 162.548774 179.812736 
L 164.786992 180.157707 
L 167.025209 180.79255 
L 169.263426 181.716145 
L 171.501643 182.926862 
L 173.739861 184.422566 
L 175.978078 186.200618 
L 178.216295 188.257881 
L 180.454513 190.590726 
L 182.69273 193.195038 
L 184.930947 196.066222 
L 187.169164 199.199212 
L 189.407382 202.588483 
L 191.645599 206.228055 
L 193.883816 210.111508 
L 198.360251 218.582231 
L 202.836685 227.940907 
L 207.31312 238.121525 
L 211.789554 249.052277 
L 216.265989 260.656064 
L 220.742423 272.85104 
L 225.218858 285.55119 
L 231.93351 305.35184 
L 240.886379 332.661972 
L 256.5539 380.786486 
L 263.268552 400.692356 
L 267.744986 413.486582 
L 272.221421 425.794023 
L 276.697855 437.527871 
L 281.17429 448.605363 
L 285.650724 458.948364 
L 290.127159 468.483921 
L 294.603593 477.144777 
L 296.841811 481.127848 
L 299.080028 484.869842 
L 301.318245 488.364157 
L 303.556462 491.604629 
L 305.79468 494.585542 
L 308.032897 497.301636 
L 310.271114 499.748119 
L 312.509331 501.920677 
L 314.747549 503.815477 
L 316.985766 505.429175 
L 319.223983 506.758925 
L 321.462201 507.802382 
L 323.700418 508.557704 
L 325.938635 509.023558 
L 328.176852 509.199124 
L 330.41507 509.084091 
L 332.653287 508.678662 
L 334.891504 507.983553 
L 337.129721 506.99999 
L 339.367939 505.729708 
L 341.606156 504.174947 
L 343.844373 502.338451 
L 346.082591 500.22346 
L 348.320808 497.833704 
L 350.559025 495.173399 
L 352.797242 492.247239 
L 355.03546 489.060385 
L 357.273677 485.618461 
L 359.511894 481.927536 
L 361.750111 477.994124 
L 366.226546 469.428006 
L 370.702981 459.980528 
L 375.179415 449.718326 
L 379.65585 438.713783 
L 384.132284 427.044518 
L 388.608719 414.79284 
L 395.32337 395.513307 
L 402.038022 375.424342 
L 413.229109 341.012959 
L 424.420195 306.753609 
L 431.134847 286.899589 
L 435.611281 274.151914 
L 440.087716 261.900236 
L 444.56415 250.230971 
L 449.040585 239.226428 
L 453.517019 228.964226 
L 457.993454 219.516747 
L 462.469889 210.95063 
L 464.708106 207.017217 
L 466.946323 203.326293 
L 469.18454 199.884368 
L 471.422758 196.697515 
L 473.660975 193.771355 
L 475.899192 191.11105 
L 478.137409 188.721294 
L 480.375627 186.606303 
L 482.613844 184.769807 
L 484.852061 183.215046 
L 487.090279 181.944764 
L 489.328496 180.9612 
L 491.566713 180.266091 
L 493.80493 179.860663 
L 496.043148 179.74563 
L 498.281365 179.921196 
L 500.519582 180.38705 
L 502.757799 181.142372 
L 504.996017 182.185828 
L 507.234234 183.515579 
L 509.472451 185.129277 
L 511.710669 187.024076 
L 513.948886 189.196634 
L 516.187103 191.643118 
L 518.42532 194.359212 
L 520.663538 197.340124 
L 522.901755 200.580596 
L 525.139972 204.074912 
L 527.378189 207.816906 
L 529.616407 211.799977 
L 534.092841 220.460833 
L 538.569276 229.99639 
L 543.04571 240.339391 
L 547.522145 251.416882 
L 551.998579 263.15073 
L 556.475014 275.458172 
L 563.189666 294.80397 
L 569.904318 314.937433 
L 581.095404 349.372856 
L 592.28649 383.592914 
L 599.001142 403.393564 
L 603.477577 416.093714 
L 607.954011 428.28869 
L 612.430446 439.892477 
L 616.90688 450.823229 
L 621.383315 461.003846 
L 625.859749 470.362522 
L 630.336184 478.833246 
L 632.574401 482.716698 
L 634.812618 486.35627 
L 637.050836 489.745541 
L 639.289053 492.878532 
L 641.52727 495.749716 
L 643.765487 498.354028 
L 646.003705 500.686873 
L 648.241922 502.744136 
L 650.480139 504.522187 
L 652.718357 506.017891 
L 654.956574 507.228609 
L 657.194791 508.152204 
L 659.433008 508.787047 
L 661.671226 509.132018 
L 663.909443 509.186509 
L 666.14766 508.950424 
L 668.385877 508.424179 
L 670.624095 507.608702 
L 672.862312 506.505433 
L 675.100529 505.116317 
L 677.338747 503.443804 
L 679.576964 501.490847 
L 681.815181 499.260888 
L 684.053398 496.757864 
L 686.291616 493.986189 
L 688.529833 490.950753 
L 690.76805 487.65691 
L 693.006267 484.110472 
L 695.244485 480.317695 
L 697.482702 476.28527 
L 701.959136 467.530339 
L 706.435571 457.907434 
L 710.912006 447.484426 
L 715.38844 436.334834 
L 719.864875 424.537301 
L 724.341309 412.175038 
L 731.055961 392.764457 
L 737.770613 372.588037 
L 751.199916 331.224622 
L 760.152786 303.953066 
L 766.867437 284.207302 
L 771.343872 271.555652 
L 775.820306 259.418311 
L 780.296741 247.88089 
L 784.773175 237.024766 
L 789.24961 226.926513 
L 793.726045 217.657356 
L 798.202479 209.282674 
L 800.440696 205.44948 
L 802.678914 201.861539 
L 804.917131 198.525181 
L 807.155348 195.446293 
L 809.393565 192.630306 
L 811.631783 190.082186 
L 813.87 187.806431 
L 813.87 187.806431 
" style="fill:none;stroke:#2ca02c;stroke-linecap:square;stroke-width:1.5;"/>
   </g>
   <g id="line2d_38">
    <path clip-path="url(#pe1cee09e18)" d="M 78.24 598.573575 
L 80.478217 596.677112 
L 82.716435 594.553679 
L 84.954652 592.207023 
L 87.192869 589.641283 
L 89.431086 586.860985 
L 91.669304 583.871034 
L 93.907521 580.676705 
L 98.383955 573.697804 
L 102.86039 565.973507 
L 107.336825 557.558295 
L 111.813259 548.511526 
L 116.289694 538.897008 
L 120.766128 528.782558 
L 125.242563 518.239515 
L 131.957214 501.784712 
L 140.910084 479.058415 
L 156.577604 438.929728 
L 163.292256 422.299565 
L 170.006908 406.394436 
L 174.483343 396.318967 
L 178.959777 386.749224 
L 183.436212 377.752706 
L 187.912646 369.392868 
L 192.389081 361.728676 
L 196.865515 354.814188 
L 199.103733 351.653541 
L 201.34195 348.698176 
L 203.580167 345.953307 
L 205.818384 343.423777 
L 208.056602 341.114047 
L 210.294819 339.028194 
L 212.533036 337.169895 
L 214.771253 335.54243 
L 217.009471 334.14867 
L 219.247688 332.991073 
L 221.485905 332.071682 
L 223.724123 331.392118 
L 225.96234 330.95358 
L 228.200557 330.756843 
L 230.438774 330.802252 
L 232.676992 331.089728 
L 234.915209 331.618764 
L 237.153426 332.388427 
L 239.391643 333.397358 
L 241.629861 334.643778 
L 243.868078 336.125488 
L 246.106295 337.839873 
L 248.344513 339.783911 
L 250.58273 341.954171 
L 252.820947 344.346824 
L 255.059164 346.957649 
L 257.297382 349.782042 
L 259.535599 352.815019 
L 261.773816 356.051229 
L 266.250251 363.110165 
L 270.726685 370.909062 
L 275.20312 379.39291 
L 279.679554 388.50187 
L 284.155989 398.171693 
L 288.632423 408.334173 
L 295.347075 424.344 
L 302.061727 441.046439 
L 313.252813 469.700363 
L 324.4439 498.280378 
L 331.158552 514.868603 
L 337.873203 530.713859 
L 342.349638 540.739907 
L 346.826072 550.253023 
L 351.302507 559.186107 
L 355.778942 567.476152 
L 360.255376 575.064685 
L 364.731811 581.898179 
L 366.970028 585.016507 
L 369.208245 587.928437 
L 371.446462 590.62883 
L 373.68468 593.112924 
L 375.922897 595.376335 
L 378.161114 597.415072 
L 380.399331 599.225537 
L 382.637549 600.804537 
L 384.875766 602.149285 
L 387.113983 603.25741 
L 389.352201 604.126957 
L 391.590418 604.756392 
L 393.828635 605.144604 
L 396.066852 605.290909 
L 398.30507 605.195048 
L 400.543287 604.857191 
L 402.781504 604.277934 
L 405.019721 603.458298 
L 407.257939 602.399729 
L 409.496156 601.104095 
L 411.734373 599.573682 
L 413.972591 597.811189 
L 416.210808 595.819725 
L 418.449025 593.602805 
L 420.687242 591.164338 
L 422.92546 588.508627 
L 425.163677 585.640356 
L 427.401894 582.564586 
L 431.878329 575.812608 
L 436.354763 568.300316 
L 440.831198 560.080699 
L 445.307632 551.211732 
L 449.784067 541.755972 
L 454.260501 531.780113 
L 458.736936 521.35452 
L 465.451588 505.034477 
L 474.404457 482.407441 
L 494.548412 431.002762 
L 501.263064 414.68272 
L 505.739499 404.257126 
L 510.215933 394.281268 
L 514.692368 384.825507 
L 519.168802 375.95654 
L 523.645237 367.736923 
L 528.121671 360.224632 
L 532.598106 353.472654 
L 534.836323 350.396883 
L 537.07454 347.528613 
L 539.312758 344.872901 
L 541.550975 342.434435 
L 543.789192 340.217514 
L 546.027409 338.226051 
L 548.265627 336.463558 
L 550.503844 334.933145 
L 552.742061 333.637511 
L 554.980279 332.578942 
L 557.218496 331.759306 
L 559.456713 331.180048 
L 561.69493 330.842191 
L 563.933148 330.746331 
L 566.171365 330.892635 
L 568.409582 331.280848 
L 570.647799 331.910282 
L 572.886017 332.779829 
L 575.124234 333.887955 
L 577.362451 335.232703 
L 579.600669 336.811703 
L 581.838886 338.622168 
L 584.077103 340.660904 
L 586.31532 342.924316 
L 588.553538 345.408409 
L 590.791755 348.108803 
L 593.029972 351.020732 
L 595.268189 354.139061 
L 599.744624 360.972555 
L 604.221058 368.561087 
L 608.697493 376.851132 
L 613.173928 385.784217 
L 617.650362 395.297333 
L 622.126797 405.323381 
L 626.603231 415.791642 
L 633.317883 432.160943 
L 642.270752 454.824992 
L 660.17649 500.619067 
L 666.891142 517.119609 
L 671.367577 527.703067 
L 675.844011 537.865547 
L 680.320446 547.53537 
L 684.79688 556.64433 
L 689.273315 565.128178 
L 693.749749 572.927074 
L 698.226184 579.986011 
L 700.464401 583.222221 
L 702.702618 586.255198 
L 704.940836 589.07959 
L 707.179053 591.690416 
L 709.41727 594.083069 
L 711.655487 596.253329 
L 713.893705 598.197366 
L 716.131922 599.911752 
L 718.370139 601.393462 
L 720.608357 602.639882 
L 722.846574 603.648813 
L 725.084791 604.418475 
L 727.323008 604.947511 
L 729.561226 605.234988 
L 731.799443 605.280397 
L 734.03766 605.083659 
L 736.275877 604.645122 
L 738.514095 603.965558 
L 740.752312 603.046167 
L 742.990529 601.88857 
L 745.228747 600.494809 
L 747.466964 598.867345 
L 749.705181 597.009046 
L 751.943398 594.923192 
L 754.181616 592.613463 
L 756.419833 590.083933 
L 758.65805 587.339064 
L 760.896267 584.383699 
L 763.134485 581.223052 
L 767.610919 574.308564 
L 772.087354 566.644372 
L 776.563788 558.284534 
L 781.040223 549.288016 
L 785.516657 539.718272 
L 789.993092 529.642804 
L 794.469526 519.132675 
L 801.184178 502.715371 
L 810.137047 480.016044 
L 828.042786 434.252527 
L 834.757437 417.797724 
L 839.233872 407.254682 
L 843.710306 397.140232 
L 848.186741 387.525714 
L 852.663175 378.478944 
L 857.13961 370.063733 
L 861.616045 362.339435 
L 865 357.016701 
L 865 357.016701 
" style="fill:none;stroke:#d62728;stroke-linecap:square;stroke-width:1.5;"/>
   </g>
   <g id="patch_3">
    <path d="M 108 630 
L 108 86.4 
" style="fill:none;stroke:#000000;stroke-linecap:square;stroke-linejoin:miter;stroke-width:0.8;"/>
   </g>
   <g id="patch_4">
    <path d="M 777.6 630 
L 777.6 86.4 
" style="fill:none;stroke:#000000;stroke-linecap:square;stroke-linejoin:miter;stroke-width:0.8;"/>
   </g>
   <g id="patch_5">
    <path d="M 108 630 
L 777.6 630 
" style="fill:none;stroke:#000000;stroke-linecap:square;stroke-linejoin:miter;stroke-width:0.8;"/>
   </g>
   <g id="patch_6">
    <path d="M 108 86.4 
L 777.6 86.4 
" style="fill:none;stroke:#000000;stroke-linecap:square;stroke-linejoin:miter;stroke-width:0.8;"/>
   </g>
   <g id="text_20">
    <!-- AC Signals with DC offset and Phase offset -->
    <g transform="translate(314.834063 80.4)scale(0.12 -0.12)">
     <defs>
      <path d="M 64.40625 67.28125 
L 64.40625 56.890625 
Q 59.421875 61.53125 53.78125 63.8125 
Q 48.140625 66.109375 41.796875 66.109375 
Q 29.296875 66.109375 22.65625 58.46875 
Q 16.015625 50.828125 16.015625 36.375 
Q 16.015625 21.96875 22.65625 14.328125 
Q 29.296875 6.6875 41.796875 6.6875 
Q 48.140625 6.6875 53.78125 8.984375 
Q 59.421875 11.28125 64.40625 15.921875 
L 64.40625 5.609375 
Q 59.234375 2.09375 53.4375 0.328125 
Q 47.65625 -1.421875 41.21875 -1.421875 
Q 24.65625 -1.421875 15.125 8.703125 
Q 5.609375 18.84375 5.609375 36.375 
Q 5.609375 53.953125 15.125 64.078125 
Q 24.65625 74.21875 41.21875 74.21875 
Q 47.75 74.21875 53.53125 72.484375 
Q 59.328125 70.75 64.40625 67.28125 
z
" id="DejaVuSans-67"/>
      <path d="M 53.515625 70.515625 
L 53.515625 60.890625 
Q 47.90625 63.578125 42.921875 64.890625 
Q 37.9375 66.21875 33.296875 66.21875 
Q 25.25 66.21875 20.875 63.09375 
Q 16.5 59.96875 16.5 54.203125 
Q 16.5 49.359375 19.40625 46.890625 
Q 22.3125 44.4375 30.421875 42.921875 
L 36.375 41.703125 
Q 47.40625 39.59375 52.65625 34.296875 
Q 57.90625 29 57.90625 20.125 
Q 57.90625 9.515625 50.796875 4.046875 
Q 43.703125 -1.421875 29.984375 -1.421875 
Q 24.8125 -1.421875 18.96875 -0.25 
Q 13.140625 0.921875 6.890625 3.21875 
L 6.890625 13.375 
Q 12.890625 10.015625 18.65625 8.296875 
Q 24.421875 6.59375 29.984375 6.59375 
Q 38.421875 6.59375 43.015625 9.90625 
Q 47.609375 13.234375 47.609375 19.390625 
Q 47.609375 24.75 44.3125 27.78125 
Q 41.015625 30.8125 33.5 32.328125 
L 27.484375 33.5 
Q 16.453125 35.6875 11.515625 40.375 
Q 6.59375 45.0625 6.59375 53.421875 
Q 6.59375 63.09375 13.40625 68.65625 
Q 20.21875 74.21875 32.171875 74.21875 
Q 37.3125 74.21875 42.625 73.28125 
Q 47.953125 72.359375 53.515625 70.515625 
z
" id="DejaVuSans-83"/>
      <path d="M 34.28125 27.484375 
Q 23.390625 27.484375 19.1875 25 
Q 14.984375 22.515625 14.984375 16.5 
Q 14.984375 11.71875 18.140625 8.90625 
Q 21.296875 6.109375 26.703125 6.109375 
Q 34.1875 6.109375 38.703125 11.40625 
Q 43.21875 16.703125 43.21875 25.484375 
L 43.21875 27.484375 
z
M 52.203125 31.203125 
L 52.203125 0 
L 43.21875 0 
L 43.21875 8.296875 
Q 40.140625 3.328125 35.546875 0.953125 
Q 30.953125 -1.421875 24.3125 -1.421875 
Q 15.921875 -1.421875 10.953125 3.296875 
Q 6 8.015625 6 15.921875 
Q 6 25.140625 12.171875 29.828125 
Q 18.359375 34.515625 30.609375 34.515625 
L 43.21875 34.515625 
L 43.21875 35.40625 
Q 43.21875 41.609375 39.140625 45 
Q 35.0625 48.390625 27.6875 48.390625 
Q 23 48.390625 18.546875 47.265625 
Q 14.109375 46.140625 10.015625 43.890625 
L 10.015625 52.203125 
Q 14.9375 54.109375 19.578125 55.046875 
Q 24.21875 56 28.609375 56 
Q 40.484375 56 46.34375 49.84375 
Q 52.203125 43.703125 52.203125 31.203125 
z
" id="DejaVuSans-97"/>
      <path d="M 4.203125 54.6875 
L 13.1875 54.6875 
L 24.421875 12.015625 
L 35.59375 54.6875 
L 46.1875 54.6875 
L 57.421875 12.015625 
L 68.609375 54.6875 
L 77.59375 54.6875 
L 63.28125 0 
L 52.6875 0 
L 40.921875 44.828125 
L 29.109375 0 
L 18.5 0 
z
" id="DejaVuSans-119"/>
      <path d="M 18.3125 70.21875 
L 18.3125 54.6875 
L 36.8125 54.6875 
L 36.8125 47.703125 
L 18.3125 47.703125 
L 18.3125 18.015625 
Q 18.3125 11.328125 20.140625 9.421875 
Q 21.96875 7.515625 27.59375 7.515625 
L 36.8125 7.515625 
L 36.8125 0 
L 27.59375 0 
Q 17.1875 0 13.234375 3.875 
Q 9.28125 7.765625 9.28125 18.015625 
L 9.28125 47.703125 
L 2.6875 47.703125 
L 2.6875 54.6875 
L 9.28125 54.6875 
L 9.28125 70.21875 
z
" id="DejaVuSans-116"/>
      <path d="M 54.890625 33.015625 
L 54.890625 0 
L 45.90625 0 
L 45.90625 32.71875 
Q 45.90625 40.484375 42.875 44.328125 
Q 39.84375 48.1875 33.796875 48.1875 
Q 26.515625 48.1875 22.3125 43.546875 
Q 18.109375 38.921875 18.109375 30.90625 
L 18.109375 0 
L 9.078125 0 
L 9.078125 75.984375 
L 18.109375 75.984375 
L 18.109375 46.1875 
Q 21.34375 51.125 25.703125 53.5625 
Q 30.078125 56 35.796875 56 
Q 45.21875 56 50.046875 50.171875 
Q 54.890625 44.34375 54.890625 33.015625 
z
" id="DejaVuSans-104"/>
      <path d="M 19.671875 64.796875 
L 19.671875 8.109375 
L 31.59375 8.109375 
Q 46.6875 8.109375 53.6875 14.9375 
Q 60.6875 21.78125 60.6875 36.53125 
Q 60.6875 51.171875 53.6875 57.984375 
Q 46.6875 64.796875 31.59375 64.796875 
z
M 9.8125 72.90625 
L 30.078125 72.90625 
Q 51.265625 72.90625 61.171875 64.09375 
Q 71.09375 55.28125 71.09375 36.53125 
Q 71.09375 17.671875 61.125 8.828125 
Q 51.171875 0 30.078125 0 
L 9.8125 0 
z
" id="DejaVuSans-68"/>
      <path d="M 30.609375 48.390625 
Q 23.390625 48.390625 19.1875 42.75 
Q 14.984375 37.109375 14.984375 27.296875 
Q 14.984375 17.484375 19.15625 11.84375 
Q 23.34375 6.203125 30.609375 6.203125 
Q 37.796875 6.203125 41.984375 11.859375 
Q 46.1875 17.53125 46.1875 27.296875 
Q 46.1875 37.015625 41.984375 42.703125 
Q 37.796875 48.390625 30.609375 48.390625 
z
M 30.609375 56 
Q 42.328125 56 49.015625 48.375 
Q 55.71875 40.765625 55.71875 27.296875 
Q 55.71875 13.875 49.015625 6.21875 
Q 42.328125 -1.421875 30.609375 -1.421875 
Q 18.84375 -1.421875 12.171875 6.21875 
Q 5.515625 13.875 5.515625 27.296875 
Q 5.515625 40.765625 12.171875 48.375 
Q 18.84375 56 30.609375 56 
z
" id="DejaVuSans-111"/>
      <path d="M 37.109375 75.984375 
L 37.109375 68.5 
L 28.515625 68.5 
Q 23.6875 68.5 21.796875 66.546875 
Q 19.921875 64.59375 19.921875 59.515625 
L 19.921875 54.6875 
L 34.71875 54.6875 
L 34.71875 47.703125 
L 19.921875 47.703125 
L 19.921875 0 
L 10.890625 0 
L 10.890625 47.703125 
L 2.296875 47.703125 
L 2.296875 54.6875 
L 10.890625 54.6875 
L 10.890625 58.5 
Q 10.890625 67.625 15.140625 71.796875 
Q 19.390625 75.984375 28.609375 75.984375 
z
" id="DejaVuSans-102"/>
      <path d="M 19.671875 64.796875 
L 19.671875 37.40625 
L 32.078125 37.40625 
Q 38.96875 37.40625 42.71875 40.96875 
Q 46.484375 44.53125 46.484375 51.125 
Q 46.484375 57.671875 42.71875 61.234375 
Q 38.96875 64.796875 32.078125 64.796875 
z
M 9.8125 72.90625 
L 32.078125 72.90625 
Q 44.34375 72.90625 50.609375 67.359375 
Q 56.890625 61.8125 56.890625 51.125 
Q 56.890625 40.328125 50.609375 34.8125 
Q 44.34375 29.296875 32.078125 29.296875 
L 19.671875 29.296875 
L 19.671875 0 
L 9.8125 0 
z
" id="DejaVuSans-80"/>
     </defs>
     <use xlink:href="#DejaVuSans-65"/>
     <use x="66.658203" xlink:href="#DejaVuSans-67"/>
     <use x="136.482422" xlink:href="#DejaVuSans-32"/>
     <use x="168.269531" xlink:href="#DejaVuSans-83"/>
     <use x="231.746094" xlink:href="#DejaVuSans-105"/>
     <use x="259.529297" xlink:href="#DejaVuSans-103"/>
     <use x="323.005859" xlink:href="#DejaVuSans-110"/>
     <use x="386.384766" xlink:href="#DejaVuSans-97"/>
     <use x="447.664062" xlink:href="#DejaVuSans-108"/>
     <use x="475.447266" xlink:href="#DejaVuSans-115"/>
     <use x="527.546875" xlink:href="#DejaVuSans-32"/>
     <use x="559.333984" xlink:href="#DejaVuSans-119"/>
     <use x="641.121094" xlink:href="#DejaVuSans-105"/>
     <use x="668.904297" xlink:href="#DejaVuSans-116"/>
     <use x="708.113281" xlink:href="#DejaVuSans-104"/>
     <use x="771.492188" xlink:href="#DejaVuSans-32"/>
     <use x="803.279297" xlink:href="#DejaVuSans-68"/>
     <use x="880.28125" xlink:href="#DejaVuSans-67"/>
     <use x="950.105469" xlink:href="#DejaVuSans-32"/>
     <use x="981.892578" xlink:href="#DejaVuSans-111"/>
     <use x="1043.074219" xlink:href="#DejaVuSans-102"/>
     <use x="1078.279297" xlink:href="#DejaVuSans-102"/>
     <use x="1113.484375" xlink:href="#DejaVuSans-115"/>
     <use x="1165.583984" xlink:href="#DejaVuSans-101"/>
     <use x="1227.107422" xlink:href="#DejaVuSans-116"/>
     <use x="1266.316406" xlink:href="#DejaVuSans-32"/>
     <use x="1298.103516" xlink:href="#DejaVuSans-97"/>
     <use x="1359.382812" xlink:href="#DejaVuSans-110"/>
     <use x="1422.761719" xlink:href="#DejaVuSans-100"/>
     <use x="1486.238281" xlink:href="#DejaVuSans-32"/>
     <use x="1518.025391" xlink:href="#DejaVuSans-80"/>
     <use x="1578.328125" xlink:href="#DejaVuSans-104"/>
     <use x="1641.707031" xlink:href="#DejaVuSans-97"/>
     <use x="1702.986328" xlink:href="#DejaVuSans-115"/>
     <use x="1755.085938" xlink:href="#DejaVuSans-101"/>
     <use x="1816.609375" xlink:href="#DejaVuSans-32"/>
     <use x="1848.396484" xlink:href="#DejaVuSans-111"/>
     <use x="1909.578125" xlink:href="#DejaVuSans-102"/>
     <use x="1944.783203" xlink:href="#DejaVuSans-102"/>
     <use x="1979.988281" xlink:href="#DejaVuSans-115"/>
     <use x="2032.087891" xlink:href="#DejaVuSans-101"/>
     <use x="2093.611328" xlink:href="#DejaVuSans-116"/>
    </g>
   </g>
  </g>
 </g>
 <defs>
  <clipPath id="pe1cee09e18">
   <rect height="543.6" width="669.6" x="108" y="86.4"/>
  </clipPath>
 </defs>
</svg>
